<?xml version="1.0" encoding="UTF-8"?>
<svg xmlns="http://www.w3.org/2000/svg" version="1.1" height="80" width="80">
 <defs>
  <linearGradient id="hicg_overlay_grad" gradientUnits="userSpaceOnUse" x1="39.9995" y1="5.1816" x2="39.9995" y2="58.8019">
   <stop offset="0" style="stop-color:#FFFFFF"/>
   <stop offset="1" style="stop-color:#000000"/>
  </linearGradient>
  <filter id="hicg_drop_shadow">
    <feOffset in="SourceAlpha" dx="0" dy="4"/>
    <feGaussianBlur stdDeviation="4"/>
	<feColorMatrix type="matrix" values="1 0 0 0 0  0 1 0 0 0  0 0 1 0 0  0 0 0 0.5 0" result="shadow"/>
    <feBlend in="SourceGraphic" in2="shadow" mode="normal"/>
  </filter>
 </defs>
 <g>
  <path id="hicg_background" fill="#f8740d" d="M79,40c0,28.893-10.105,39-39,39S1,68.893,1,40C1,11.106,11.105,1,40,1S79,11.106,79,40z"/>
  <path id="hicg_highlight" fill="#fff" opacity="0.25" d="M39.999,1C11.105,1,1,11.106,1,40c0,28.893,10.105,39,38.999,39   C68.896,79,79,68.893,79,40C79,11.106,68.896,1,39.999,1z M39.999,78.025C11.57,78.025,1.976,68.43,1.976,40   c0-28.429,9.595-38.024,38.023-38.024c28.43,0,38.024,9.596,38.024,38.024C78.023,68.43,68.429,78.025,39.999,78.025z"/>
  <path id="hicg_overlay" opacity="0.4" fill="url(#hicg_overlay_grad)" d="M78.977,40c0,28.893-10.1,39-38.977,39S1.023,68.893,1.023,40c0-28.894,10.1-39,38.977-39S78.977,11.106,78.977,40z"/>
 </g>
<g transform="translate(13, 17.876651982379) scale(0.23788546255507)" filter="url(#hicg_drop_shadow)"><defs xmlns="http://www.w3.org/2000/svg" id="defs22"/>

<path xmlns="http://www.w3.org/2000/svg" d="M 129.909,185.59 L 94.846,185.59 L 94.846,185.59 C 95.026,187.174 95.026,187.174 94.846,185.59 C 94.63,183.897 94.126,179.324 93.622,175.904 C 92.974,172.341 92.326,168.777 91.39,164.781 L 91.39,164.781 C 87.214,165.644 83.146,166.006 79.042,166.006 C 74.938,165.969 70.942,165.43 66.91,164.529 L 66.91,164.529 C 66.406,167.084 65.794,170.181 64.93,173.674 C 63.994,177.201 63.058,181.125 61.726,185.59 L 61.726,185.59 L 24.43,185.59 L 24.43,185.59 C 23.278,162.908 22.09,146.889 20.722,136.412 C 19.318,125.973 18.166,124.568 16.294,123.598 C 14.314,122.66 11.65,126.153 9.13,130.725 C 6.502,135.225 3.694,141.561 0.706,150.274 L 0.706,150.274 C -0.338,140.014 -0.266,130.762 1.21,121.833 C 2.686,112.978 5.278,105.202 9.13,97.39 C 12.802,89.434 17.95,81.154 23.458,74.926 C 28.858,68.626 34.474,64.198 41.71,60.094 C 48.838,55.954 57.082,52.786 66.442,50.446 L 66.442,50.446 C 64.858,41.338 64.282,33.742 64.714,27.226 C 65.074,20.71 66.334,15.85 68.89,11.674 C 71.374,7.318 75.838,3.646 79.762,1.774 C 83.614,-0.206 88.114,-0.242 91.894,0.298 C 95.638,0.802 98.878,2.494 102.01,4.978 C 105.07,7.354 107.734,10.522 110.146,14.626 L 110.146,14.626 C 115.906,11.926 121.45,10.342 127.21,9.874 C 132.861,9.334 138.334,9.442 144.022,11.602 C 149.638,13.726 156.154,17.866 160.798,22.222 C 165.226,26.434 168.466,31.869 170.949,36.874 C 173.397,41.842 174.909,46.594 175.63,51.67 L 175.63,51.67 C 177.861,51.49 179.626,51.994 181.066,53.182 C 182.47,54.334 183.226,56.098 184.018,58.618 C 184.738,60.958 185.53,65.134 185.278,67.69 C 184.846,70.282 183.73,72.262 181.786,73.918 L 181.786,73.918 C 185.062,77.914 188.807,83.278 193.414,90.154 C 197.879,97.03 203.206,107.218 208.967,114.886 C 214.655,122.482 220.919,128.997 227.759,135.118 L 227.759,135.118 C 227.326,138.79 226.355,141.417 224.555,143.29 C 222.719,145.091 220.343,145.989 217.139,145.989 L 217.139,145.989 C 209.435,139.329 202.811,133.749 197.122,128.962 C 191.326,124.245 188.482,120.97 183.047,117.585 C 177.538,114.022 171.49,110.855 164.507,107.939 L 164.507,107.939 C 164.939,109.451 164.147,110.89 162.275,112.402 C 160.331,113.914 157.235,115.859 153.131,116.83 C 148.99,117.695 143.807,117.73 137.578,117.334 L 137.578,117.334 C 135.383,127.559 133.654,138.25 132.394,149.699 C 131.098,161.145 130.27,172.917 129.909,185.59 L 129.909,185.59 z " style="fill-rule:evenodd" id="path5"/>
<path xmlns="http://www.w3.org/2000/svg" d="M 119.037,40.33 C 114.682,30.358 110.685,22.762 107.193,17.11 C 103.557,11.422 101.217,8.938 97.797,6.742 C 94.233,4.438 90.345,3.214 86.673,3.754 C 82.929,4.294 78.609,6.13 75.801,9.694 C 72.957,13.15 70.617,18.046 69.897,24.526 C 69.177,30.898 70.365,40.258 71.373,47.746 C 72.309,55.162 74.325,62.11 75.081,68.734 C 75.549,75.25 75.045,81.622 75.081,87.022 C 75.081,92.35 74.145,96.489 75.333,100.847 C 76.449,105.165 78.717,110.675 81.993,112.943 C 85.161,115.138 90.057,115.427 94.341,113.951 C 98.481,112.26 102.441,108.082 107.193,103.799 C 111.873,99.479 116.805,94.511 122.277,88.499 L 122.277,88.499 C 121.378,91.343 120.009,94.187 118.317,96.887 C 116.589,99.623 114.393,102.215 111.873,104.807 L 111.873,104.807 C 116.013,107.688 120.621,109.776 125.985,111.215 C 131.313,112.547 138.405,113.34 143.769,113.195 C 149.061,112.799 154.965,111.539 157.593,109.99 C 159.933,108.551 160.113,107.111 158.565,104.554 C 156.945,101.89 153.705,98.435 148.449,94.186 L 148.449,94.186 C 155.613,97.966 162.597,101.782 169.689,105.778 C 176.637,109.702 184.665,114.022 190.461,117.909 C 196.293,121.798 199.929,125.218 204.284,128.997 C 208.496,132.634 212.24,136.091 215.66,139.653 L 215.66,139.653 C 215.768,138.249 216.345,137.098 217.389,136.198 C 218.325,135.262 219.765,134.469 221.565,133.966 L 221.565,133.966 C 214.149,126.515 207.705,119.062 201.801,111.466 C 195.824,103.726 190.353,94.726 186.501,88.498 C 182.721,82.342 180.2,77.734 179.085,74.674 L 179.085,74.674 C 175.809,74.638 173.253,73.594 171.417,71.686 C 169.473,69.634 168.501,65.638 167.961,63.046 C 167.349,60.418 167.169,58.15 167.961,56.386 C 168.645,54.622 170.049,53.254 172.173,52.426 L 172.173,52.426 C 169.725,44.074 166.736,37.126 162.777,31.438 C 158.71,25.714 153.093,21.394 148.701,18.334 C 144.346,15.166 140.997,13.762 136.857,13.15 C 132.537,12.502 127.713,13.834 123.502,14.626 C 119.218,15.382 115.365,16.318 111.658,17.578 L 111.658,17.578 C 113.674,19.918 115.366,22.834 116.59,26.722 C 117.777,30.465 118.642,35.001 119.037,40.33 L 119.037,40.33 z " style="fill:#f8740d;fill-rule:evenodd;stroke:#000000;stroke-width:0.036;stroke-miterlimit:10" id="path7"/>
<path xmlns="http://www.w3.org/2000/svg" d="M 153.525,55.954 C 151.509,57.466 150.429,61.894 150.429,64.954 C 150.429,68.014 152.049,71.722 153.777,73.99 C 155.433,76.114 158.277,77.734 160.221,77.878 C 162.129,77.878 163.821,76.618 164.865,74.242 C 165.765,71.794 166.126,66.466 165.657,63.406 C 164.973,60.202 163.857,56.926 161.769,55.666 C 159.718,54.405 155.397,54.369 153.525,55.954 L 153.525,55.954 z " style="fill-rule:evenodd;stroke:#000000;stroke-width:0.036;stroke-miterlimit:10" id="path9"/>
<path xmlns="http://www.w3.org/2000/svg" d="M 157.09,73.666 C 154.75,71.326 153.31,68.806 152.913,66.502 C 152.409,64.09 153.13,60.634 154.39,59.338 C 155.578,57.898 158.494,57.754 160.078,58.366 C 161.555,58.906 162.671,61.03 163.282,62.794 C 163.786,64.45 163.463,66.718 163.282,68.482 C 162.959,70.174 162.383,71.434 161.554,72.694 L 161.554,72.694 C 162.094,70.498 162.058,69.058 161.302,67.978 C 160.474,66.862 157.918,66.322 157.09,66.502 C 156.19,66.61 156.046,67.762 156.117,68.986 C 156.081,70.209 156.405,71.721 157.09,73.666 L 157.09,73.666 z " style="fill:#f8740d;fill-rule:evenodd;stroke:#000000;stroke-width:0.036;stroke-miterlimit:10" id="path11"/>
<path xmlns="http://www.w3.org/2000/svg" d="M 175.378,71.217 C 172.966,68.877 171.562,66.357 171.165,64.053 C 170.626,61.641 171.453,58.185 172.678,56.889 C 173.829,55.521 176.818,55.233 178.329,55.881 C 179.806,56.493 180.886,58.581 181.569,60.345 C 182.073,62.001 181.75,64.305 181.569,65.997 C 181.245,67.689 180.67,68.949 179.841,70.209 L 179.841,70.209 C 180.381,68.085 180.345,66.573 179.589,65.529 C 178.761,64.413 176.204,63.873 175.377,64.053 C 174.477,64.197 174.333,65.241 174.404,66.501 C 174.369,67.726 174.693,69.201 175.378,71.217 L 175.378,71.217 z " style="fill:#f8740d;fill-rule:evenodd;stroke:#000000;stroke-width:0.036;stroke-miterlimit:10" id="path13"/>
<path xmlns="http://www.w3.org/2000/svg" d="M 101.001,52.677 C 98.049,55.845 96.285,58.797 95.565,62.073 C 94.845,65.241 94.809,69.273 96.825,71.685 C 98.841,74.025 102.333,75.465 107.445,76.149 L 107.445,76.149 C 103.305,73.053 100.893,69.741 99.777,65.781 C 98.698,61.821 99.058,57.501 101.001,52.677 L 101.001,52.677 z " style="fill-rule:evenodd;stroke:#000000;stroke-width:0.036;stroke-miterlimit:10" id="path15"/>
<path xmlns="http://www.w3.org/2000/svg" d="M 67.917,54.657 C 59.493,56.061 51.933,58.725 44.949,62.793 C 37.894,66.79 31.306,72.981 26.158,78.85 C 20.902,84.718 17.05,91.954 14.062,97.642 C 11.038,103.15 9.706,106.355 8.122,111.97 C 6.394,117.585 5.206,123.741 4.162,130.978 L 4.162,130.978 C 6.97,125.29 9.742,121.654 12.334,119.638 C 14.89,117.622 17.41,115.462 19.75,119.134 C 21.946,122.806 24.466,131.122 25.906,141.599 C 27.346,152.001 27.958,164.997 28.138,181.126 L 28.138,181.126 L 57.802,181.126 L 57.802,181.126 C 59.71,176.591 61.222,171.37 62.482,165.321 C 63.706,159.165 64.426,152.469 64.93,144.839 L 64.93,144.839 C 65.722,146.855 66.262,149.157 66.694,151.749 C 67.09,154.343 67.378,157.222 67.414,160.39 L 67.414,160.39 C 70.438,161.47 73.858,162.046 77.53,162.119 C 81.238,162.082 85.054,161.723 89.41,160.642 L 89.41,160.642 C 89.446,159.13 89.23,157.15 88.906,154.703 C 88.51,152.219 87.934,149.303 87.178,145.81 L 87.178,145.81 C 90.562,151.57 93.154,157.367 95.098,163.343 C 96.97,169.318 98.122,175.187 98.554,181.378 L 98.554,181.378 L 126.201,181.378 L 126.201,181.378 C 126.705,168.634 127.75,157.222 128.937,146.314 C 130.089,135.371 131.781,125.759 133.617,116.65 L 133.617,116.65 C 126.346,114.779 120.802,113.23 116.842,111.718 C 112.846,110.169 110.578,108.947 109.894,107.759 L 109.894,107.759 C 106.15,112.259 102.118,115.245 97.798,117.154 C 93.406,118.918 87.466,119.783 83.722,118.631 C 79.942,117.334 77.062,113.483 75.082,109.99 C 72.886,106.427 71.338,103.619 70.87,97.39 C 70.258,90.982 72.346,79.39 71.878,72.19 C 71.41,65.025 70.042,59.229 67.917,54.657 L 67.917,54.657 z " style="fill:#f8740d;fill-rule:evenodd;stroke:#000000;stroke-width:0.036;stroke-miterlimit:10" id="path17"/>
<path xmlns="http://www.w3.org/2000/svg" d="M 223.941,136.305 C 221.889,136.412 220.449,136.989 219.477,138.034 C 218.469,139.077 218.073,140.518 218.145,142.497 L 218.145,142.497 C 220.197,142.462 221.781,141.993 222.753,140.95 C 223.726,139.797 224.121,138.43 223.941,136.305 L 223.941,136.305 z " style="fill:#f8740d;fill-rule:evenodd;stroke:#000000;stroke-width:0.036;stroke-miterlimit:10" id="path19"/>
</g></svg>
